<svg id="Layer_1" data-name="Layer 1" xmlns="http://www.w3.org/2000/svg" viewBox="0 0 621.48 342.04"><title>jm-logo</title><path d="M700.25,217.38q-.18-6.47-.57-13.61t-.38-10.57q-.37-21.52-4.57-206,0-10.1-5.33-10.66H661.22q-20.38,0-60.18.57t-60.18.57a16.67,16.67,0,0,1-2.75-.5,1,1,0,0,0-1.26.8L507.62,125.52a1,1,0,0,1-2,0L492.11,54.94Q482.38,5.49,477.79-20a1,1,0,0,0-1-.84q-11.75,0-33.14-1.52-22.18-1.51-76.46-1.52H344.72c-.51,0-1.65,0-3.43-.1s-3.23-.06-4.38,0-2.6.13-4.38.19a25.91,25.91,0,0,0-4.38.48c-.29.06-.6.15-.9.23q-8.22.06-19.45.18-20.48.21-30.93.21-7,0-20.92-.21T235-23.13c-6.1.73-9.15,3.19-9.15,7.41V-11a3,3,0,0,0,3,3H377A13.08,13.08,0,0,1,390,5h0a36.07,36.07,0,0,1-36,36H228.89a3,3,0,0,0-3,3v4a3,3,0,0,0,3,3H320a13.08,13.08,0,0,1,13,13h0a36.07,36.07,0,0,1-36,36H229.37a3,3,0,0,0-3,3q.21,11.82.5,25.43,1,44.88,1.2,60.56v1.74q0,6.76-.33,11.11A65,65,0,0,1,226,212.13q-1.41,5.88-4.79,8.82a12.94,12.94,0,0,1-8.82,2.94c-3.92,0-6.79-1.08-8.61-3.26a14.94,14.94,0,0,1-3.27-8.06c-.36-3.2-.76-6.39-1.19-9.59a13.78,13.78,0,0,0-3.92-8.06c-2.18-2.18-5.53-3.26-10-3.26H86q-7,0-7,11.76,0,26.58,7.52,46.83t20.15,32.9a98.48,98.48,0,0,0,31,20.58,159.28,159.28,0,0,0,38.34,11.11A283.58,283.58,0,0,0,220.23,318a217,217,0,0,0,24.51-1.42,193.19,193.19,0,0,0,26.79-5.12,178.94,178.94,0,0,0,27.12-9.36,122.11,122.11,0,0,0,24.94-14.92A109.44,109.44,0,0,0,342.37,269a1,1,0,0,1,.78-.38c6,0,13-.08,21.19-.15q21.71-.19,32.94-.19h17.9c2,0,3.37-1.35,4.14-4l0-.33q-.37-11.42-.37-33.73V196.62q0-30,2-85.33a1,1,0,0,1,2-.21l4.15,17.37q4,16.76,6.95,29.9t5.43,25.33l18.28,79.59q2.09,6.48,14.47,6.48h67.41q15.62,0,17.52-5.33,4.18-17.33,15.24-68.75,9.66-45,16.71-71.8a1,1,0,0,1,2,.2v.1q.28,4.85.29,6.57v13.33q0,9.9-.19,33.23t-.19,39.89q0,44.79,8.85,52.32a1,1,0,0,0,.67.24h86.45a8.78,8.78,0,0,0,6.76-3.05A19.39,19.39,0,0,0,698,258a95.29,95.29,0,0,0,2-12,125.77,125.77,0,0,0,.57-14.28Q700.44,223.86,700.25,217.38Z" transform="translate(-79.07 24.04)"/></svg>